<svg width="71" height="14" viewBox="0 0 71 14" fill="none" xmlns="http://www.w3.org/2000/svg">
<path d="M32.9413 10.2083L31.1695 13.9036H30.4672L32.5821 9.46608L29.5254 3.07324H30.3395L32.9413 8.69192L35.5431 3.07324H36.3492L32.9413 10.2163V10.2083Z" fill="#FBF8FF"/>
<path d="M19.876 3.07325H20.5943V3.25682C21.0412 2.82584 21.5759 2.61035 22.1985 2.61035C22.8423 2.61035 23.3903 2.83648 23.8426 3.28874C23.9649 3.41112 24.0714 3.54414 24.1618 3.6878C24.2523 3.54946 24.3613 3.41644 24.489 3.28874C24.9413 2.83648 25.4893 2.61035 26.1331 2.61035C26.7769 2.61035 27.325 2.83648 27.7772 3.28874C28.2082 3.72504 28.4343 4.24913 28.4556 4.86101V10.9107H27.7373V4.86101H27.7453C27.724 4.446 27.5671 4.09217 27.2744 3.79953C26.9552 3.48561 26.5748 3.32865 26.1331 3.32865C25.6915 3.32865 25.3111 3.48561 24.9918 3.79953C24.6779 4.11345 24.521 4.50453 24.521 4.97275V10.9107H23.8027V4.86101H23.8106C23.7894 4.446 23.6324 4.09217 23.3398 3.79953C23.0205 3.48561 22.6401 3.32865 22.1985 3.32865C21.7568 3.32865 21.3791 3.48561 21.0652 3.79953C20.7885 4.07089 20.6315 4.40343 20.5943 4.79717V10.9107H19.876V3.07325Z" fill="#FBF8FF"/>
<path d="M7.52448 2.04327H5.17972L8.01659 0.0497265L7.52448 2.04327Z" fill="#EDE2FF"/>
<path d="M13.6128 0.0497261L16.4497 2.04327H14.105L13.6128 0.0497261Z" fill="#853AE5"/>
<path d="M8.22432 0L10.5605 2.04327H7.71993L8.22432 0Z" fill="#BCB1FF"/>
<path d="M13.4051 0L13.9095 2.04327H11.0689L13.4051 0Z" fill="#CD9AFF"/>
<path d="M7.49441 2.23464L7.28798 4.44734L5.10578 2.23464H7.49441Z" fill="#E0B8FF"/>
<path d="M14.3415 4.44734L14.135 2.23464H16.5237L14.3415 4.44734Z" fill="#A780FB"/>
<path d="M7.68491 2.23464H10.522L7.47748 4.4581L7.68491 2.23464Z" fill="#BE9FFF"/>
<path d="M11.1075 2.23464H13.9445L14.152 4.4581L11.1075 2.23464Z" fill="#D3B0FF"/>
<path d="M3.15506 4.56382L4.88692 2.28402L7.13529 4.56382H3.15506Z" fill="#C99EFF"/>
<path d="M18.4744 4.56382H14.4941L16.7425 2.28402L18.4744 4.56382Z" fill="#895BEB"/>
<path d="M7.65619 4.56382L10.7199 2.32633V4.56382H7.65619Z" fill="#D0B9FF"/>
<path d="M10.9096 4.56382V2.32633L13.9732 4.56382H10.9096Z" fill="#F0DDFF"/>
<path d="M3.11816 4.75519H7.18628L4.88826 8.23445L3.11816 4.75519Z" fill="#AA3FDC"/>
<path d="M16.7412 8.23445L14.4432 4.75519H18.5113L16.7412 8.23445Z" fill="#7E36DA"/>
<path d="M5.04438 8.34316L7.26861 4.97562V8.55943L5.04438 8.34316Z" fill="#A14CE4"/>
<path d="M16.5851 8.34316L14.3608 8.55943V4.97562L16.5851 8.34316Z" fill="#8F44EE"/>
<path d="M7.56465 4.75519H10.7199V8.61298L7.56465 4.75519Z" fill="#B489F9"/>
<path d="M10.9096 8.61298V4.75519H14.0648L10.9096 8.61298Z" fill="#AD89F9"/>
<path d="M10.6026 8.77021L7.45827 8.5748V4.92578L10.6026 8.77021Z" fill="#A85BF6"/>
<path d="M14.1712 8.5748L11.0269 8.77021L14.1712 4.92578V8.5748Z" fill="#9F5BF6"/>
<path d="M7.75311 11.7227L6.42642 10.1317L5.09974 8.5408L7.2814 8.75293L7.75311 11.7227Z" fill="#9C37CC"/>
<path d="M14.348 8.75293L16.5297 8.5408L13.8763 11.7227L14.348 8.75293Z" fill="#6F17B5"/>
<path d="M7.96375 11.8395L7.47581 8.76762L10.609 8.96234L7.96375 11.8395Z" fill="#993BE3"/>
<path d="M13.6657 11.8395L11.0205 8.96234L14.1536 8.76762L13.6657 11.8395Z" fill="#8F3BE3"/>
<path d="M8.04479 12.0327L10.7199 9.12309V13.9034L8.04479 12.0327Z" fill="#8823B8"/>
<path d="M13.5846 12.0327L10.9096 13.9034V9.12309L13.5846 12.0327Z" fill="#6F1FAE"/>
<path d="M62.6838 3.19377C63.0901 2.8959 63.5587 2.74609 64.0848 2.74609C64.7509 2.74609 65.3229 2.98193 65.7915 3.45047C65.8612 3.5202 65.926 3.59337 65.9859 3.66997C66.0464 3.59483 66.1123 3.52167 66.1835 3.45047C66.652 2.98193 67.2241 2.74609 67.8901 2.74609C68.5561 2.74609 69.1282 2.98193 69.5967 3.45047L69.5974 3.45118C70.0433 3.90253 70.279 4.44869 70.301 5.0819L70.3011 5.08476V10.7789H69.2766V4.99905C69.2406 4.68069 69.1084 4.40896 68.8778 4.17814C68.5995 3.90473 68.2731 3.77055 67.8901 3.77055C67.5072 3.77055 67.1807 3.90472 66.9025 4.17812C66.6319 4.44888 66.4958 4.78418 66.4958 5.19569V10.7789H65.4714V4.99906C65.4353 4.6807 65.3031 4.40896 65.0725 4.17814C64.7942 3.90473 64.4678 3.77055 64.0848 3.77055C63.7017 3.77055 63.3782 3.90479 63.1054 4.17765L63.1048 4.17822L63.1043 4.17878C62.8668 4.41163 62.732 4.6943 62.6983 5.03385V10.7789H61.6738V3.19377H62.6838Z" fill="#A258FF"/>
<path fill-rule="evenodd" clip-rule="evenodd" d="M58.8906 9.92592C58.9442 9.87059 58.9964 9.8144 59.0472 9.75734V10.7791H60.0716V3.19394H59.0472V3.8677C58.9964 3.81064 58.9442 3.75444 58.8906 3.69911L58.8896 3.69817L58.8887 3.69725C58.0293 2.83781 56.9865 2.40626 55.7696 2.40626C54.5576 2.40626 53.5175 2.83797 52.6582 3.69725C51.7987 4.55668 51.3672 5.59949 51.3672 6.81638C51.3672 8.02834 51.7989 9.06851 52.6582 9.92779C53.5175 10.7871 54.5576 11.2188 55.7696 11.2188C56.9865 11.2188 58.0293 10.7872 58.8887 9.92779L58.8896 9.92686L58.8906 9.92592ZM59.0472 6.14509C58.9232 5.50637 58.6193 4.94393 58.1307 4.45531C57.4772 3.80183 56.6932 3.47703 55.7696 3.47703C54.8459 3.47703 54.062 3.80183 53.4085 4.45531C52.755 5.10878 52.4302 5.89274 52.4302 6.81638C52.4302 7.73991 52.755 8.5238 53.4083 9.17723C54.0616 9.82555 54.8457 10.148 55.7696 10.148C56.6932 10.148 57.4772 9.8232 58.1307 9.16973C58.6195 8.68092 58.9232 8.12095 59.0472 7.48754V6.14509Z" fill="#A258FF"/>
<path fill-rule="evenodd" clip-rule="evenodd" d="M46.9014 10.148C46.1005 10.148 45.4063 9.90214 44.8119 9.40925L50.2617 3.95943L50.1584 3.84323C50.115 3.79437 50.069 3.74571 50.0206 3.69725C49.8938 3.57052 49.7667 3.45391 49.639 3.34755L49.6378 3.34654L49.6366 3.34555C48.8547 2.71901 47.9406 2.40626 46.9014 2.40626C45.6895 2.40626 44.6493 2.83797 43.79 3.69725C42.9307 4.55653 42.499 5.5967 42.499 6.80866C42.499 8.02555 42.9306 9.06835 43.79 9.92779C44.6493 10.7871 45.6895 11.2188 46.9014 11.2188C48.1183 11.2188 49.1611 10.7872 50.0206 9.92779C50.1963 9.75208 50.3538 9.56788 50.493 9.37515L50.6215 9.19729L49.5732 8.8221L49.4994 8.91061C49.4255 8.99931 49.3465 9.08568 49.2625 9.16973C48.609 9.8232 47.8251 10.148 46.9014 10.148ZM44.5481 4.45531L44.5476 4.45575C43.8946 5.10391 43.5698 5.88505 43.5698 6.80866C43.5698 7.50486 43.7535 8.11856 44.1196 8.65493L48.7477 4.02679C48.2113 3.66069 47.5976 3.47703 46.9014 3.47703C45.9832 3.47703 45.2017 3.80164 44.5481 4.45531Z" fill="#A258FF"/>
<path fill-rule="evenodd" clip-rule="evenodd" d="M39.1306 0.555664H40.1551L40.1551 3.19397H41.6988V4.21843H40.1551L40.1551 10.7791H39.1306L39.1306 4.21843H37.5869V3.19397H39.1306L39.1306 0.555664Z" fill="#A258FF"/>
<path d="M1.83646 3.0498V10.8929H1.11816V3.0498H1.83646Z" fill="#FBF8FF"/>
<path d="M2.025 0.442937C1.88155 0.298687 1.70775 0.226562 1.50362 0.226562C1.29948 0.226562 1.12293 0.298687 0.973962 0.442937C0.830513 0.587186 0.758789 0.761951 0.758789 0.967229C0.758789 1.17806 0.830513 1.35559 0.973962 1.49984C1.12293 1.64409 1.29948 1.71622 1.50362 1.71622C1.70775 1.71622 1.88155 1.64409 2.025 1.49984C2.17396 1.35559 2.24844 1.17806 2.24844 0.967229C2.24844 0.761951 2.17396 0.587186 2.025 0.442937Z" fill="#FBF8FF"/>
</svg>
