<svg width="80" height="80" viewBox="0 0 80 80" fill="none" xmlns="http://www.w3.org/2000/svg">
<path d="M34.3863 8.99999H42.0209L37.7264 13.3077H39.6351L43.9295 8.99999H51.5641L47.2696 13.3077H49.1783L53.4727 8.99999H61.1073L56.8128 13.3077H67.9996V40.8769C67.9996 42.7802 66.4567 44.3231 64.5534 44.3231H23.1996C21.2963 44.3231 19.7534 42.7802 19.7534 40.8769V13.3077H30.0919L34.3863 8.99999Z" fill="#FEFEFE"/>
<rect x="26.6455" y="16.7538" width="34.4615" height="24.1231" fill="#1A1A1A"/>
<path d="M50.8305 28.4148L37.9701 35.9834L37.8457 21.0616L50.8305 28.4148Z" fill="#FEFEFE"/>
<path d="M35.4991 40.3854L36.1865 41.0951L33.2035 43.9845L32.4572 43.5944L31.7324 40.7698L32.6539 40.5333L33.1899 42.6221L35.4991 40.3854Z" fill="#1A1A1A"/>
<circle cx="32.2454" cy="46.4766" r="1.29231" fill="#1A1A1A"/>
<circle cx="20.1843" cy="58.5383" r="4.73846" fill="#1A1A1A"/>
<circle cx="35.6916" cy="62.846" r="4.73846" fill="#1A1A1A"/>
<path d="M26.2839 61.4373C24.3596 65.6809 18.9432 66.8973 15.4383 63.8563C11.8318 60.7268 12.3552 55.0617 16.4718 52.6364C18.4417 51.476 20.8439 51.3979 22.9892 52.3933L26.1653 49.2005C27.1063 48.255 27.9633 47.3895 28.5859 46.7566C28.8974 46.4401 29.1502 46.182 29.3247 46.002C29.3603 45.9653 29.3928 45.9325 29.4214 45.9028C29.4069 45.8325 29.3894 45.7475 29.3686 45.6488C29.3009 45.3282 29.2015 44.8673 29.0783 44.2999C28.832 43.1652 28.4896 41.6072 28.1112 39.9001C27.3567 36.4969 26.6898 33.4221 26.6347 33.0884C26.3606 31.4253 26.8507 29.9105 28.0484 28.651C28.4005 28.2808 28.7328 27.9898 29.0276 27.8417C29.1718 27.7692 29.3757 27.6952 29.5998 27.7321C29.8679 27.7764 30.0464 27.9569 30.1352 28.1598C30.148 28.1891 30.1554 28.2153 30.1561 28.2176C30.1588 28.2266 30.1618 28.2348 30.1635 28.2411C30.1672 28.2543 30.1713 28.2695 30.1752 28.2851C30.1834 28.317 30.1938 28.3604 30.2065 28.4131C30.2321 28.5189 30.2679 28.6701 30.3124 28.8602C30.4014 29.2409 30.5268 29.7827 30.6788 30.4455C30.9832 31.7721 31.3959 33.5855 31.8432 35.5647C32.2899 37.5416 32.7179 39.3758 33.0388 40.7163C33.1673 41.253 33.2797 41.7094 33.3679 42.0642L34.9076 40.523L35.0545 40.3763L35.2616 40.377L39.9998 40.3763L41.1146 40.3764L40.3738 41.2087C40.0587 41.5625 35.7386 46.1095 34.5819 47.2474L34.4738 47.3545L35.4885 51.8289C36.0068 54.1143 36.2753 55.2889 36.4384 55.9005C36.4884 56.0878 36.5263 56.2068 36.5521 56.2818C36.7216 56.3182 36.9885 56.375 37.2502 56.427C41.5222 57.2756 43.9177 62.1091 42.062 66.082C40.8103 68.7615 38.0691 70.3265 35.0913 70.0747C34.7 70.0416 34.1565 69.9067 33.6528 69.7446C33.1482 69.5822 32.6247 69.3741 32.2794 69.1711C31.7101 68.8363 30.8398 68.0935 30.4185 67.5841C28.8893 65.7344 28.4354 63.1015 29.2553 60.8422C29.772 59.4184 30.6549 58.3178 32.0112 57.3688L31.2735 54.0739C31.0507 53.0792 30.8427 52.1746 30.6887 51.5181C30.6697 51.437 30.6507 51.3598 30.6334 51.2867C30.5798 51.3395 30.5219 51.3943 30.4626 51.453C29.9829 51.927 29.3261 52.5831 28.6082 53.307L26.2302 55.7052C27.0592 57.672 27.0925 59.6537 26.2839 61.4373ZM31.9915 47.06C32.1412 47.0399 32.2561 46.9529 32.3117 46.76C32.3458 46.6417 32.3481 46.6064 32.3481 46.6018C32.3495 46.6179 32.3578 46.6092 32.3006 46.5058C32.2006 46.3247 32.0597 46.2633 31.8835 46.2921C31.6603 46.3287 31.5045 46.5997 31.6419 46.8485C31.6645 46.8894 31.7258 46.9541 31.8202 47.0056C31.8639 47.0294 31.9054 47.045 31.9396 47.0532C31.9723 47.061 31.9894 47.0602 31.9915 47.06ZM32.9592 64.7306C33.4856 65.6829 34.3878 66.2846 35.4168 66.395L35.6236 66.4109C37.0804 66.473 38.4836 65.4646 38.8844 64.0739C39.3669 62.3992 38.3427 60.5458 36.6679 60.0633C35.2424 59.6526 33.6045 60.3496 32.9097 61.6644C32.3969 62.635 32.4101 63.737 32.9592 64.7306ZM19.1114 61.7427C19.3047 61.7952 19.6311 61.8467 19.8089 61.8543C21.2657 61.9163 22.669 60.9079 23.0697 59.5173C23.5523 57.8425 22.528 55.9892 20.8533 55.5066C19.1785 55.0241 17.3251 56.0483 16.8426 57.7231C16.353 59.4226 17.3972 61.2764 19.1114 61.7427Z" fill="#FEFEFE" stroke="#1A1A1A"/>
</svg>
