<svg width="92" height="92" viewBox="0 0 92 92" fill="none" xmlns="http://www.w3.org/2000/svg">
<path d="M39.5439 10.3496H48.3236L43.385 15.3035H45.58L50.5186 10.3496H59.2983L54.3597 15.3035H56.5546L61.4932 10.3496H70.273L65.3344 15.3035H78.1991V47.0081C78.1991 49.1968 76.4248 50.9711 74.2361 50.9711H26.6791C24.4904 50.9711 22.7161 49.1968 22.7161 47.0081V15.3035H34.6053L39.5439 10.3496Z" fill="#FEFEFE"/>
<rect x="30.642" y="19.2666" width="39.6308" height="27.7415" fill="#1A1A1A"/>
<path d="M58.4544 32.6769L43.6649 41.3807L43.5219 24.2207L58.4544 32.6769Z" fill="#FEFEFE"/>
<path d="M35.4989 40.3848L36.1863 41.0945L33.2033 43.9838L32.457 43.5937L31.7322 40.7691L32.6537 40.5327L33.1897 42.6214L35.4989 40.3848Z" fill="#1A1A1A"/>
<circle cx="32.2454" cy="46.4759" r="1.29231" fill="#1A1A1A"/>
<circle cx="20.1838" cy="58.5373" r="4.73846" fill="#1A1A1A"/>
<circle cx="35.6915" cy="62.8449" r="4.73846" fill="#1A1A1A"/>
<path d="M30.158 70.622C27.9653 75.4569 21.7949 76.8412 17.8027 73.3773C13.6943 69.8123 14.2897 63.3593 18.9792 60.596C21.2369 59.2659 23.996 59.1826 26.4543 60.3412L30.1426 56.6334C31.2251 55.5457 32.2111 54.5498 32.9273 53.8218C33.2856 53.4578 33.5762 53.1611 33.7771 52.9538C33.8298 52.8995 33.8764 52.852 33.9158 52.8109C33.8978 52.723 33.8744 52.6122 33.8465 52.4799C33.7687 52.1111 33.6547 51.581 33.513 50.9285C33.2297 49.6235 32.8361 47.8313 32.4009 45.8681C31.5328 41.9525 30.7661 38.4204 30.7032 38.0393C30.3918 36.1509 30.9475 34.4324 32.3096 33C32.7136 32.5752 33.0881 32.2489 33.4149 32.0846C33.5751 32.0041 33.7926 31.9267 34.0275 31.9654C34.3063 32.0114 34.4918 32.1983 34.5856 32.4128C34.598 32.4411 34.606 32.4662 34.6075 32.4709C34.6103 32.4803 34.6134 32.4896 34.6153 32.4966C34.6193 32.511 34.6239 32.5283 34.6285 32.5461C34.6377 32.5821 34.6493 32.6313 34.6638 32.6915C34.6932 32.8129 34.735 32.9867 34.7861 33.2054C34.8885 33.643 35.0319 34.2664 35.2069 35.0289C35.5568 36.5542 36.0313 38.6389 36.5456 40.9148C37.0594 43.1886 37.5515 45.2986 37.9206 46.8406C38.0845 47.5252 38.2247 48.0967 38.3309 48.5208L40.197 46.654L40.343 46.507L40.5504 46.5068L45.9995 46.5077L47.1144 46.5078L46.3726 47.3398C46.0101 47.7467 41.0453 52.9726 39.7163 54.2799L39.5628 54.4318L40.7389 59.6194C41.3346 62.2465 41.6432 63.5991 41.8312 64.3042C41.8981 64.555 41.9473 64.7025 41.9792 64.7889C42.1715 64.8306 42.5014 64.9001 42.8231 64.964C47.6872 65.9301 50.4169 71.4369 48.3026 75.9628C46.8767 79.0149 43.7547 80.797 40.3611 80.5102C39.9196 80.4728 39.301 80.3197 38.7235 80.1339C38.1452 79.9477 37.5497 79.7104 37.1596 79.481C36.5123 79.1004 35.5169 78.2528 35.038 77.6736C33.2964 75.567 32.7795 72.5662 33.7133 69.9929C34.3045 68.3639 35.3163 67.1055 36.8778 66.0183L36.8968 66.0055L36.0369 62.1682C35.7806 61.024 35.5421 59.9828 35.3648 59.2275C35.3314 59.0849 35.2991 58.953 35.2704 58.8324C35.1818 58.9194 35.0835 59.0133 34.9792 59.1164C34.4273 59.6618 33.6719 60.4172 32.8461 61.2499L30.076 64.0423L30.0846 64.062C31.0421 66.3162 31.082 68.584 30.158 70.622ZM36.8003 54.1928C37.004 54.1654 37.1595 54.0429 37.2311 53.7946C37.2782 53.631 37.2756 53.5929 37.275 53.5857C37.2749 53.5846 37.2751 53.583 37.2745 53.5804C37.2738 53.5775 37.2716 53.5713 37.2678 53.5612C37.2593 53.539 37.2435 53.5043 37.2108 53.4452C37.081 53.2103 36.8886 53.1222 36.6535 53.1607C36.3427 53.2116 36.1413 53.5822 36.3225 53.9108C36.3569 53.9731 36.4388 54.0572 36.5565 54.1216C36.6784 54.188 36.7703 54.1968 36.8003 54.1928ZM37.8374 74.476C38.4953 75.666 39.6555 76.3912 40.9637 76.4469C42.6735 76.5197 44.3191 75.3374 44.7895 73.7046C45.3556 71.7389 44.1543 69.5662 42.1887 68.9998C40.5152 68.5177 38.5952 69.3347 37.7796 70.8779C37.1776 72.017 37.194 73.3117 37.8374 74.476ZM21.9579 71.0755C22.1852 71.1372 22.5663 71.1978 22.7769 71.2067C24.4865 71.2795 26.1322 70.0973 26.6026 68.4644C27.1687 66.4988 25.9674 64.326 24.0018 63.7597C22.0362 63.1933 19.863 64.3938 19.2964 66.3593C18.7216 68.3542 19.9464 70.5283 21.9579 71.0755Z" fill="#FEFEFE" stroke="#1A1A1A"/>
</svg>
