<svg width="48" height="48" viewBox="0 0 48 48" fill="none" xmlns="http://www.w3.org/2000/svg">
<path d="M22.5898 41.748C20.6271 41.748 18.6951 41.3953 16.7938 40.69C14.9231 39.9847 13.2211 38.9267 11.6878 37.516C10.1545 36.1053 8.9278 34.342 8.0078 32.226C7.0878 30.11 6.6278 27.6413 6.6278 24.82C6.6278 21.9067 7.11846 19.3767 8.0998 17.23C9.08113 15.0833 10.3691 13.3047 11.9638 11.894C13.5891 10.4833 15.3985 9.44067 17.3918 8.766C19.3851 8.06067 21.3938 7.708 23.4178 7.708C25.3805 7.708 27.2818 8.03 29.1218 8.674C30.9618 9.28733 32.6025 10.2073 34.0438 11.434C35.5158 12.63 36.6658 14.1173 37.4938 15.896C38.3525 17.644 38.7818 19.668 38.7818 21.968C38.7818 23.7467 38.5211 25.4027 37.9998 26.936C37.4785 28.4387 36.7885 29.742 35.9298 30.846C35.0711 31.9193 34.1205 32.7627 33.0778 33.376C32.0658 33.9893 31.0385 34.296 29.9958 34.296C28.6771 34.296 27.7725 33.8053 27.2818 32.824C26.7911 31.812 26.5151 30.478 26.4538 28.822H26.2698C25.9631 29.4353 25.5338 30.1867 24.9818 31.076C24.4298 31.9347 23.7705 32.686 23.0038 33.33C22.2678 33.974 21.4091 34.296 20.4278 34.296C19.9065 34.296 19.3391 34.158 18.7258 33.882C18.1431 33.5753 17.5758 33.0693 17.0238 32.364C16.5025 31.628 16.0731 30.616 15.7358 29.328C15.3985 28.0093 15.2298 26.3533 15.2298 24.36C15.2298 21.9067 15.5058 19.9747 16.0578 18.564C16.6405 17.1533 17.4685 16.1567 18.5418 15.574C19.6151 14.9607 20.9338 14.654 22.4978 14.654C23.3258 14.654 24.1538 14.7153 24.9818 14.838C25.8405 14.9607 26.6225 15.0987 27.3278 15.252C28.0331 15.3747 28.6005 15.4973 29.0298 15.62C29.4898 15.7427 29.7198 15.804 29.7198 15.804C29.7198 15.804 29.7045 16.1413 29.6738 16.816C29.6738 17.46 29.6738 18.3033 29.6738 19.346C29.6738 20.3887 29.6585 21.4927 29.6278 22.658C29.6278 23.8233 29.6278 24.8967 29.6278 25.878C29.6278 27.4727 29.6431 28.6533 29.6738 29.42C29.7351 30.156 29.8118 30.6313 29.9038 30.846C30.0265 31.0607 30.1951 31.168 30.4098 31.168C30.9925 31.168 31.6671 30.8153 32.4338 30.11C33.2311 29.374 33.9211 28.3313 34.5038 26.982C35.1171 25.6327 35.4238 24.0073 35.4238 22.106C35.4238 18.7633 34.3658 16.0953 32.2498 14.102C30.1338 12.1087 27.2051 11.112 23.4638 11.112C20.9185 11.112 18.6338 11.618 16.6098 12.63C14.5858 13.6113 12.9911 15.0987 11.8258 17.092C10.6605 19.0547 10.0778 21.5233 10.0778 24.498C10.0778 27.5033 10.6605 30.0487 11.8258 32.134C13.0218 34.1887 14.5705 35.7527 16.4718 36.826C18.4038 37.8993 20.4891 38.436 22.7278 38.436C23.3718 38.436 24.0005 38.4053 24.6138 38.344C25.2271 38.2827 25.7331 38.2213 26.1318 38.16C26.5305 38.068 26.7298 38.022 26.7298 38.022L27.0978 41.104C27.0978 41.104 26.6838 41.2113 25.8558 41.426C25.0278 41.6407 23.9391 41.748 22.5898 41.748ZM20.9338 30.616C21.4858 30.616 22.0531 30.2173 22.6358 29.42C23.2185 28.6227 23.7705 27.6107 24.2918 26.384C24.8131 25.1267 25.2271 23.808 25.5338 22.428C25.8711 21.048 26.0398 19.76 26.0398 18.564C25.7945 18.5027 25.3191 18.426 24.6138 18.334C23.9391 18.2113 23.2031 18.15 22.4058 18.15C21.2098 18.15 20.4431 18.3033 20.1058 18.61C19.7991 18.8553 19.5538 19.484 19.3698 20.496C19.2165 21.508 19.1398 22.8267 19.1398 24.452C19.1398 26.6293 19.2931 28.2087 19.5998 29.19C19.9371 30.1407 20.3818 30.616 20.9338 30.616Z" fill="#E3E3E3"/>
</svg>
