<svg width="92" height="92" viewBox="0 0 92 92" fill="none" xmlns="http://www.w3.org/2000/svg">
<path d="M39.5437 10.3501H48.3234L43.3848 15.3039H45.5797L50.5183 10.3501H59.2981L54.3595 15.3039H56.5544L61.493 10.3501H70.2727L65.3341 15.3039H78.1989V47.0086C78.1989 49.1973 76.4246 50.9716 74.2358 50.9716H26.6789C24.4902 50.9716 22.7158 49.1973 22.7158 47.0086V15.3039H34.6051L39.5437 10.3501Z" fill="#FEFEFE"/>
<rect x="30.6426" y="19.2671" width="39.6308" height="27.7415" fill="#1A1A1A"/>
<path d="M58.454 32.6769L43.6645 41.3807L43.5215 24.2207L58.454 32.6769Z" fill="#FEFEFE"/>
<path d="M40.8238 46.4441L41.6144 47.2603L38.1839 50.583L37.3257 50.1344L36.4922 46.8861L37.5519 46.6142L38.1683 49.0163L40.8238 46.4441Z" fill="#1A1A1A"/>
<circle cx="37.0828" cy="53.4488" r="1.48615" fill="#1A1A1A"/>
<circle cx="23.2119" cy="67.3196" r="5.44923" fill="#1A1A1A"/>
<circle cx="41.0459" cy="72.2737" r="5.44923" fill="#1A1A1A"/>
<path d="M30.2266 70.6541C28.0136 75.534 21.785 76.9319 17.7544 73.4347C13.6069 69.8358 14.2082 63.3217 18.9423 60.5326C21.2077 59.198 23.9707 59.1075 26.4379 60.2522L30.09 56.5818C31.1725 55.4942 32.1587 54.4981 32.8748 53.7702C33.2328 53.4064 33.5227 53.1099 33.7233 52.9029C33.7642 52.8607 33.8016 52.8228 33.8345 52.7886C33.8178 52.7077 33.7973 52.6101 33.7733 52.4965C33.6954 52.1279 33.5815 51.5977 33.4398 50.9451C33.1564 49.6402 32.7626 47.8488 32.3274 45.8856C31.4599 41.9724 30.6933 38.4374 30.6298 38.0528C30.3144 36.1401 30.8782 34.3985 32.2556 32.95C32.6606 32.5241 33.0427 32.1887 33.3818 32.0183C33.5476 31.935 33.7822 31.8504 34.0399 31.8929C34.3482 31.9438 34.5525 32.1507 34.6545 32.384C34.6693 32.4177 34.6792 32.4472 34.6801 32.4503C34.6833 32.4606 34.6854 32.4705 34.6874 32.4778C34.6916 32.493 34.6967 32.5106 34.7013 32.5286C34.7106 32.5651 34.7227 32.6147 34.7373 32.6751C34.7667 32.7968 34.8084 32.9704 34.8596 33.189C34.962 33.6268 35.1051 34.2508 35.2801 35.0135C35.6301 36.539 36.1054 38.6236 36.6197 40.8997C37.1335 43.1732 37.625 45.2826 37.9941 46.8243C38.1418 47.4411 38.2715 47.9656 38.3729 48.3735L40.1435 46.6021L40.3121 46.4332L40.5508 46.4338L46.0001 46.4338L47.2818 46.4332L46.4297 47.3909C46.0673 47.7978 41.0994 53.0263 39.7692 54.3349L39.6454 54.4578L40.8121 59.604C41.408 62.2324 41.7164 63.5834 41.904 64.2867C41.9618 64.5032 42.0058 64.6399 42.0356 64.726C42.2305 64.7679 42.5376 64.8325 42.8383 64.8923C47.751 65.8682 50.5053 71.4261 48.3713 75.9949C46.9319 79.0763 43.7794 80.8762 40.3549 80.5868C39.9049 80.5487 39.2804 80.3932 38.7011 80.2068C38.1208 80.02 37.5192 79.7801 37.122 79.5465C36.4673 79.1615 35.4654 78.3082 34.9809 77.7223C33.2223 75.5952 32.7008 72.5671 33.6436 69.9689C34.2379 68.3315 35.2531 67.0657 36.8129 65.9744L35.9643 62.186C35.7081 61.042 35.4692 60.0013 35.292 59.2463C35.2701 59.153 35.2484 59.0641 35.2285 58.98C35.1668 59.0407 35.1004 59.1039 35.0321 59.1714C34.4804 59.7165 33.7249 60.4714 32.8993 61.3039L30.1658 64.0612C31.1192 66.3231 31.1566 68.6029 30.2266 70.6541ZM36.7904 54.1199C36.9625 54.0969 37.0952 53.9969 37.1591 53.775C37.198 53.6401 37.2003 53.5987 37.2004 53.5927C37.202 53.6112 37.2114 53.6013 37.1458 53.4825C37.0308 53.2742 36.8686 53.2033 36.6659 53.2365C36.4092 53.2786 36.2309 53.5901 36.3891 53.8763C36.4152 53.9233 36.4847 53.9978 36.5931 54.057C36.6434 54.0844 36.6913 54.1024 36.7307 54.1119L36.7904 54.1199ZM37.9033 74.4402C38.5488 75.6082 39.6861 76.3183 40.9674 76.3729C42.6427 76.4441 44.2568 75.2843 44.7176 73.685C45.2722 71.7591 44.0943 69.6272 42.1685 69.0724C40.5291 68.6 38.6449 69.4024 37.8459 70.9144C37.2562 72.0305 37.272 73.2975 37.9033 74.4402ZM21.9781 71.0042C22.2004 71.0646 22.576 71.1241 22.7805 71.1327C24.4558 71.2039 26.0699 70.0441 26.5307 68.4448C27.0853 66.519 25.9074 64.3871 23.9816 63.8322C22.0557 63.2773 19.924 64.4556 19.3689 66.3813C18.8058 68.3359 20.0068 70.4679 21.9781 71.0042Z" fill="#FEFEFE" stroke="#1A1A1A" stroke-width="1.15"/>
</svg>
